<?xml version="1.0" encoding="utf-8"?>
<svg width="800" height="500" version="1.1" xmlns:xlink="http://www.w3.org/1999/xlink" xmlns="http://www.w3.org/2000/svg">
  <defs>
    <clipPath id="clipPath1">
      <rect x="0" y="0" width="800" height="500" />
    </clipPath>
  </defs>
  <g clip-path="url(#clipPath1)">
    <polyline points="761.4688,456.894 761.4688,460.894" style="fill:none;stroke:black;stroke-width:1" shape-rendering="crispEdges" />
    <polyline points="743.2351,456.894 743.2351,460.894" style="fill:none;stroke:black;stroke-width:1" shape-rendering="crispEdges" />
    <polyline points="725.0014,456.894 725.0014,460.894" style="fill:none;stroke:black;stroke-width:1" shape-rendering="crispEdges" />
    <polyline points="706.7677,456.894 706.7677,460.894" style="fill:none;stroke:black;stroke-width:1" shape-rendering="crispEdges" />
    <polyline points="670.3003,456.894 670.3003,460.894" style="fill:none;stroke:black;stroke-width:1" shape-rendering="crispEdges" />
    <polyline points="652.0666,456.894 652.0666,460.894" style="fill:none;stroke:black;stroke-width:1" shape-rendering="crispEdges" />
    <polyline points="633.8329,456.894 633.8329,460.894" style="fill:none;stroke:black;stroke-width:1" shape-rendering="crispEdges" />
    <polyline points="615.5992,456.894 615.5992,460.894" style="fill:none;stroke:black;stroke-width:1" shape-rendering="crispEdges" />
    <polyline points="579.1318,456.894 579.1318,460.894" style="fill:none;stroke:black;stroke-width:1" shape-rendering="crispEdges" />
    <polyline points="560.8981,456.894 560.8981,460.894" style="fill:none;stroke:black;stroke-width:1" shape-rendering="crispEdges" />
    <polyline points="542.6644,456.894 542.6644,460.894" style="fill:none;stroke:black;stroke-width:1" shape-rendering="crispEdges" />
    <polyline points="524.4307,456.894 524.4307,460.894" style="fill:none;stroke:black;stroke-width:1" shape-rendering="crispEdges" />
    <polyline points="487.9633,456.894 487.9633,460.894" style="fill:none;stroke:black;stroke-width:1" shape-rendering="crispEdges" />
    <polyline points="469.7296,456.894 469.7296,460.894" style="fill:none;stroke:black;stroke-width:1" shape-rendering="crispEdges" />
    <polyline points="451.4959,456.894 451.4959,460.894" style="fill:none;stroke:black;stroke-width:1" shape-rendering="crispEdges" />
    <polyline points="433.2622,456.894 433.2622,460.894" style="fill:none;stroke:black;stroke-width:1" shape-rendering="crispEdges" />
    <polyline points="396.7948,456.894 396.7948,460.894" style="fill:none;stroke:black;stroke-width:1" shape-rendering="crispEdges" />
    <polyline points="378.5611,456.894 378.5611,460.894" style="fill:none;stroke:black;stroke-width:1" shape-rendering="crispEdges" />
    <polyline points="360.3274,456.894 360.3274,460.894" style="fill:none;stroke:black;stroke-width:1" shape-rendering="crispEdges" />
    <polyline points="342.0937,456.894 342.0937,460.894" style="fill:none;stroke:black;stroke-width:1" shape-rendering="crispEdges" />
    <polyline points="305.6263,456.894 305.6263,460.894" style="fill:none;stroke:black;stroke-width:1" shape-rendering="crispEdges" />
    <polyline points="287.3926,456.894 287.3926,460.894" style="fill:none;stroke:black;stroke-width:1" shape-rendering="crispEdges" />
    <polyline points="269.1589,456.894 269.1589,460.894" style="fill:none;stroke:black;stroke-width:1" shape-rendering="crispEdges" />
    <polyline points="250.9252,456.894 250.9252,460.894" style="fill:none;stroke:black;stroke-width:1" shape-rendering="crispEdges" />
    <polyline points="214.4578,456.894 214.4578,460.894" style="fill:none;stroke:black;stroke-width:1" shape-rendering="crispEdges" />
    <polyline points="196.2241,456.894 196.2241,460.894" style="fill:none;stroke:black;stroke-width:1" shape-rendering="crispEdges" />
    <polyline points="177.9904,456.894 177.9904,460.894" style="fill:none;stroke:black;stroke-width:1" shape-rendering="crispEdges" />
    <polyline points="159.7567,456.894 159.7567,460.894" style="fill:none;stroke:black;stroke-width:1" shape-rendering="crispEdges" />
    <polyline points="123.2893,456.894 123.2893,460.894" style="fill:none;stroke:black;stroke-width:1" shape-rendering="crispEdges" />
    <polyline points="105.0556,456.894 105.0556,460.894" style="fill:none;stroke:black;stroke-width:1" shape-rendering="crispEdges" />
    <polyline points="86.8219,456.894 86.8219,460.894" style="fill:none;stroke:black;stroke-width:1" shape-rendering="crispEdges" />
    <polyline points="68.5882,456.894 68.5882,460.894" style="fill:none;stroke:black;stroke-width:1" shape-rendering="crispEdges" />
    <polyline points="43.061,53.3236 39.061,53.3236" style="fill:none;stroke:black;stroke-width:1" shape-rendering="crispEdges" />
    <polyline points="43.061,68.3963 39.061,68.3963" style="fill:none;stroke:black;stroke-width:1" shape-rendering="crispEdges" />
    <polyline points="43.061,83.4689 39.061,83.4689" style="fill:none;stroke:black;stroke-width:1" shape-rendering="crispEdges" />
    <polyline points="43.061,98.5416 39.061,98.5416" style="fill:none;stroke:black;stroke-width:1" shape-rendering="crispEdges" />
    <polyline points="43.061,128.6869 39.061,128.6869" style="fill:none;stroke:black;stroke-width:1" shape-rendering="crispEdges" />
    <polyline points="43.061,143.7596 39.061,143.7596" style="fill:none;stroke:black;stroke-width:1" shape-rendering="crispEdges" />
    <polyline points="43.061,158.8322 39.061,158.8322" style="fill:none;stroke:black;stroke-width:1" shape-rendering="crispEdges" />
    <polyline points="43.061,173.9049 39.061,173.9049" style="fill:none;stroke:black;stroke-width:1" shape-rendering="crispEdges" />
    <polyline points="43.061,204.0502 39.061,204.0502" style="fill:none;stroke:black;stroke-width:1" shape-rendering="crispEdges" />
    <polyline points="43.061,219.1229 39.061,219.1229" style="fill:none;stroke:black;stroke-width:1" shape-rendering="crispEdges" />
    <polyline points="43.061,234.1955 39.061,234.1955" style="fill:none;stroke:black;stroke-width:1" shape-rendering="crispEdges" />
    <polyline points="43.061,249.2682 39.061,249.2682" style="fill:none;stroke:black;stroke-width:1" shape-rendering="crispEdges" />
    <polyline points="43.061,279.4135 39.061,279.4135" style="fill:none;stroke:black;stroke-width:1" shape-rendering="crispEdges" />
    <polyline points="43.061,294.4861 39.061,294.4861" style="fill:none;stroke:black;stroke-width:1" shape-rendering="crispEdges" />
    <polyline points="43.061,309.5588 39.061,309.5588" style="fill:none;stroke:black;stroke-width:1" shape-rendering="crispEdges" />
    <polyline points="43.061,324.6314 39.061,324.6314" style="fill:none;stroke:black;stroke-width:1" shape-rendering="crispEdges" />
    <polyline points="43.061,354.7768 39.061,354.7768" style="fill:none;stroke:black;stroke-width:1" shape-rendering="crispEdges" />
    <polyline points="43.061,369.8494 39.061,369.8494" style="fill:none;stroke:black;stroke-width:1" shape-rendering="crispEdges" />
    <polyline points="43.061,384.9221 39.061,384.9221" style="fill:none;stroke:black;stroke-width:1" shape-rendering="crispEdges" />
    <polyline points="43.061,399.9947 39.061,399.9947" style="fill:none;stroke:black;stroke-width:1" shape-rendering="crispEdges" />
    <polyline points="43.061,430.14 39.061,430.14" style="fill:none;stroke:black;stroke-width:1" shape-rendering="crispEdges" />
    <polyline points="43.061,445.2127 39.061,445.2127" style="fill:none;stroke:black;stroke-width:1" shape-rendering="crispEdges" />
    <text dominant-baseline="hanging" text-anchor="middle" transform="translate(779.7025,467.894)" font-family="Segoe UI" font-size="12" font-weight="400" fill="black">0</text>
    <text dominant-baseline="hanging" text-anchor="middle" transform="translate(688.534,467.894)" font-family="Segoe UI" font-size="12" font-weight="400" fill="black">10</text>
    <text dominant-baseline="hanging" text-anchor="middle" transform="translate(597.3655,467.894)" font-family="Segoe UI" font-size="12" font-weight="400" fill="black">20</text>
    <text dominant-baseline="hanging" text-anchor="middle" transform="translate(506.197,467.894)" font-family="Segoe UI" font-size="12" font-weight="400" fill="black">30</text>
    <text dominant-baseline="hanging" text-anchor="middle" transform="translate(415.0285,467.894)" font-family="Segoe UI" font-size="12" font-weight="400" fill="black">40</text>
    <text dominant-baseline="hanging" text-anchor="middle" transform="translate(323.86,467.894)" font-family="Segoe UI" font-size="12" font-weight="400" fill="black">50</text>
    <text dominant-baseline="hanging" text-anchor="middle" transform="translate(232.6915,467.894)" font-family="Segoe UI" font-size="12" font-weight="400" fill="black">60</text>
    <text dominant-baseline="hanging" text-anchor="middle" transform="translate(141.523,467.894)" font-family="Segoe UI" font-size="12" font-weight="400" fill="black">70</text>
    <text dominant-baseline="hanging" text-anchor="middle" transform="translate(50.3545,467.894)" font-family="Segoe UI" font-size="12" font-weight="400" fill="black">80</text>
    <polyline points="779.7025,456.894 779.7025,463.894" style="fill:none;stroke:black;stroke-width:1" shape-rendering="crispEdges" />
    <polyline points="688.534,456.894 688.534,463.894" style="fill:none;stroke:black;stroke-width:1" shape-rendering="crispEdges" />
    <polyline points="597.3655,456.894 597.3655,463.894" style="fill:none;stroke:black;stroke-width:1" shape-rendering="crispEdges" />
    <polyline points="506.197,456.894 506.197,463.894" style="fill:none;stroke:black;stroke-width:1" shape-rendering="crispEdges" />
    <polyline points="415.0285,456.894 415.0285,463.894" style="fill:none;stroke:black;stroke-width:1" shape-rendering="crispEdges" />
    <polyline points="323.86,456.894 323.86,463.894" style="fill:none;stroke:black;stroke-width:1" shape-rendering="crispEdges" />
    <polyline points="232.6915,456.894 232.6915,463.894" style="fill:none;stroke:black;stroke-width:1" shape-rendering="crispEdges" />
    <polyline points="141.523,456.894 141.523,463.894" style="fill:none;stroke:black;stroke-width:1" shape-rendering="crispEdges" />
    <polyline points="50.3545,456.894 50.3545,463.894" style="fill:none;stroke:black;stroke-width:1" shape-rendering="crispEdges" />
    <text dominant-baseline="baseline" text-anchor="middle" transform="translate(415.0285,488)" font-family="Segoe UI" font-size="12" font-weight="400" fill="black">X-axis</text>
    <text dominant-baseline="middle" text-anchor="end" transform="translate(32.061,38.251)" font-family="Segoe UI" font-size="12" font-weight="400" fill="black">10</text>
    <text dominant-baseline="middle" text-anchor="end" transform="translate(32.061,113.6143)" font-family="Segoe UI" font-size="12" font-weight="400" fill="black">20</text>
    <text dominant-baseline="middle" text-anchor="end" transform="translate(32.061,188.9775)" font-family="Segoe UI" font-size="12" font-weight="400" fill="black">30</text>
    <text dominant-baseline="middle" text-anchor="end" transform="translate(32.061,264.3408)" font-family="Segoe UI" font-size="12" font-weight="400" fill="black">40</text>
    <text dominant-baseline="middle" text-anchor="end" transform="translate(32.061,339.7041)" font-family="Segoe UI" font-size="12" font-weight="400" fill="black">50</text>
    <text dominant-baseline="middle" text-anchor="end" transform="translate(32.061,415.0674)" font-family="Segoe UI" font-size="12" font-weight="400" fill="black">60</text>
    <polyline points="43.061,38.251 36.061,38.251" style="fill:none;stroke:black;stroke-width:1" shape-rendering="crispEdges" />
    <polyline points="43.061,113.6143 36.061,113.6143" style="fill:none;stroke:black;stroke-width:1" shape-rendering="crispEdges" />
    <polyline points="43.061,188.9775 36.061,188.9775" style="fill:none;stroke:black;stroke-width:1" shape-rendering="crispEdges" />
    <polyline points="43.061,264.3408 36.061,264.3408" style="fill:none;stroke:black;stroke-width:1" shape-rendering="crispEdges" />
    <polyline points="43.061,339.7041 36.061,339.7041" style="fill:none;stroke:black;stroke-width:1" shape-rendering="crispEdges" />
    <polyline points="43.061,415.0674 36.061,415.0674" style="fill:none;stroke:black;stroke-width:1" shape-rendering="crispEdges" />
    <text dominant-baseline="hanging" text-anchor="middle" transform="translate(12,245.5) rotate(-90)" font-family="Segoe UI" font-size="12" font-weight="400" fill="black">Y-axis</text>
  </g>
  <defs>
    <clipPath id="clipPath2">
      <rect x="43.061" y="34.106" width="743.935" height="422.788" />
    </clipPath>
  </defs>
  <g clip-path="url(#clipPath2)">
    <polyline points="779.7025,60.86 688.534,317.0951 506.197,136.2232 415.0285,452.749 50.3545,38.251" style="fill:none;stroke:rgb(78,154,6);stroke-width:2;stroke-linejoin:bevel" />
  </g>
  <defs>
    <clipPath id="clipPath3">
      <rect x="0" y="0" width="800" height="500" />
    </clipPath>
  </defs>
  <g clip-path="url(#clipPath3)">
    <text dominant-baseline="hanging" text-anchor="middle" transform="translate(415.0285,8)" font-family="Segoe UI" font-size="18" font-weight="700" fill="black">Reversed axes</text>
    <rect x="43.061" y="34.106" width="743.935" height="422.788" style="fill:none;stroke:black;stroke-width:1" shape-rendering="crispEdges" />
  </g>
</svg>