<?xml version="1.0" encoding="utf-8"?>
<svg width="800" height="500" version="1.1" xmlns:xlink="http://www.w3.org/1999/xlink" xmlns="http://www.w3.org/2000/svg">
  <defs>
    <clipPath id="clipPath1">
      <rect x="0" y="0" width="800" height="500" />
    </clipPath>
  </defs>
  <g clip-path="url(#clipPath1)">
    <polyline points="48.065,456.894 48.065,460.894" style="fill:none;stroke:black;stroke-width:1" shape-rendering="crispEdges" />
    <polyline points="121.9607,456.894 121.9607,460.894" style="fill:none;stroke:black;stroke-width:1" shape-rendering="crispEdges" />
    <polyline points="165.187,456.894 165.187,460.894" style="fill:none;stroke:black;stroke-width:1" shape-rendering="crispEdges" />
    <polyline points="195.8565,456.894 195.8565,460.894" style="fill:none;stroke:black;stroke-width:1" shape-rendering="crispEdges" />
    <polyline points="219.6456,456.894 219.6456,460.894" style="fill:none;stroke:black;stroke-width:1" shape-rendering="crispEdges" />
    <polyline points="239.0827,456.894 239.0827,460.894" style="fill:none;stroke:black;stroke-width:1" shape-rendering="crispEdges" />
    <polyline points="255.5166,456.894 255.5166,460.894" style="fill:none;stroke:black;stroke-width:1" shape-rendering="crispEdges" />
    <polyline points="269.7522,456.894 269.7522,460.894" style="fill:none;stroke:black;stroke-width:1" shape-rendering="crispEdges" />
    <polyline points="282.309,456.894 282.309,460.894" style="fill:none;stroke:black;stroke-width:1" shape-rendering="crispEdges" />
    <polyline points="367.4371,456.894 367.4371,460.894" style="fill:none;stroke:black;stroke-width:1" shape-rendering="crispEdges" />
    <polyline points="410.6633,456.894 410.6633,460.894" style="fill:none;stroke:black;stroke-width:1" shape-rendering="crispEdges" />
    <polyline points="441.3328,456.894 441.3328,460.894" style="fill:none;stroke:black;stroke-width:1" shape-rendering="crispEdges" />
    <polyline points="465.1219,456.894 465.1219,460.894" style="fill:none;stroke:black;stroke-width:1" shape-rendering="crispEdges" />
    <polyline points="484.559,456.894 484.559,460.894" style="fill:none;stroke:black;stroke-width:1" shape-rendering="crispEdges" />
    <polyline points="500.9929,456.894 500.9929,460.894" style="fill:none;stroke:black;stroke-width:1" shape-rendering="crispEdges" />
    <polyline points="515.2286,456.894 515.2286,460.894" style="fill:none;stroke:black;stroke-width:1" shape-rendering="crispEdges" />
    <polyline points="527.7853,456.894 527.7853,460.894" style="fill:none;stroke:black;stroke-width:1" shape-rendering="crispEdges" />
    <polyline points="612.9134,456.894 612.9134,460.894" style="fill:none;stroke:black;stroke-width:1" shape-rendering="crispEdges" />
    <polyline points="656.1396,456.894 656.1396,460.894" style="fill:none;stroke:black;stroke-width:1" shape-rendering="crispEdges" />
    <polyline points="686.8091,456.894 686.8091,460.894" style="fill:none;stroke:black;stroke-width:1" shape-rendering="crispEdges" />
    <polyline points="710.5983,456.894 710.5983,460.894" style="fill:none;stroke:black;stroke-width:1" shape-rendering="crispEdges" />
    <polyline points="730.0354,456.894 730.0354,460.894" style="fill:none;stroke:black;stroke-width:1" shape-rendering="crispEdges" />
    <polyline points="746.4692,456.894 746.4692,460.894" style="fill:none;stroke:black;stroke-width:1" shape-rendering="crispEdges" />
    <polyline points="760.7049,456.894 760.7049,460.894" style="fill:none;stroke:black;stroke-width:1" shape-rendering="crispEdges" />
    <polyline points="773.2616,456.894 773.2616,460.894" style="fill:none;stroke:black;stroke-width:1" shape-rendering="crispEdges" />
    <polyline points="48.065,329.6221 44.065,329.6221" style="fill:none;stroke:black;stroke-width:1" shape-rendering="crispEdges" />
    <polyline points="48.065,255.1729 44.065,255.1729" style="fill:none;stroke:black;stroke-width:1" shape-rendering="crispEdges" />
    <polyline points="48.065,202.3503 44.065,202.3503" style="fill:none;stroke:black;stroke-width:1" shape-rendering="crispEdges" />
    <polyline points="48.065,161.3779 44.065,161.3779" style="fill:none;stroke:black;stroke-width:1" shape-rendering="crispEdges" />
    <polyline points="48.065,127.901 44.065,127.901" style="fill:none;stroke:black;stroke-width:1" shape-rendering="crispEdges" />
    <polyline points="48.065,99.5967 44.065,99.5967" style="fill:none;stroke:black;stroke-width:1" shape-rendering="crispEdges" />
    <polyline points="48.065,75.0784 44.065,75.0784" style="fill:none;stroke:black;stroke-width:1" shape-rendering="crispEdges" />
    <polyline points="48.065,53.4517 44.065,53.4517" style="fill:none;stroke:black;stroke-width:1" shape-rendering="crispEdges" />
    <text dominant-baseline="hanging" text-anchor="middle" transform="translate(293.5413,467.894)" font-family="Segoe UI" font-size="12" font-weight="400" fill="black">1</text>
    <text dominant-baseline="hanging" text-anchor="middle" transform="translate(539.0177,467.894)" font-family="Segoe UI" font-size="12" font-weight="400" fill="black">10</text>
    <text dominant-baseline="hanging" text-anchor="middle" transform="translate(784.494,467.894)" font-family="Segoe UI" font-size="12" font-weight="400" fill="black">100</text>
    <polyline points="293.5413,456.894 293.5413,463.894" style="fill:none;stroke:black;stroke-width:1" shape-rendering="crispEdges" />
    <polyline points="539.0177,456.894 539.0177,463.894" style="fill:none;stroke:black;stroke-width:1" shape-rendering="crispEdges" />
    <polyline points="784.494,456.894 784.494,463.894" style="fill:none;stroke:black;stroke-width:1" shape-rendering="crispEdges" />
    <text dominant-baseline="baseline" text-anchor="middle" transform="translate(416.2795,488)" font-family="Segoe UI" font-size="12" font-weight="400" fill="black">X-axis</text>
    <text dominant-baseline="middle" text-anchor="end" transform="translate(37.065,456.894)" font-family="Segoe UI" font-size="12" font-weight="400" fill="black">10</text>
    <text dominant-baseline="middle" text-anchor="end" transform="translate(37.065,34.106)" font-family="Segoe UI" font-size="12" font-weight="400" fill="black">100</text>
    <polyline points="48.065,456.894 41.065,456.894" style="fill:none;stroke:black;stroke-width:1" shape-rendering="crispEdges" />
    <polyline points="48.065,34.106 41.065,34.106" style="fill:none;stroke:black;stroke-width:1" shape-rendering="crispEdges" />
    <text dominant-baseline="hanging" text-anchor="middle" transform="translate(12,245.5) rotate(-90)" font-family="Segoe UI" font-size="12" font-weight="400" fill="black">Y-axis</text>
  </g>
  <defs>
    <clipPath id="clipPath2">
      <rect x="48.065" y="34.106" width="736.429" height="422.788" />
    </clipPath>
  </defs>
  <g clip-path="url(#clipPath2)">
    <polyline points="293.5413,423.4171 410.6633,395.1128 632.3505,348.9678 644.9073,339.0403" style="fill:none;stroke:rgb(78,154,6);stroke-width:2;stroke-linejoin:bevel" />
  </g>
  <defs>
    <clipPath id="clipPath3">
      <rect x="0" y="0" width="800" height="500" />
    </clipPath>
  </defs>
  <g clip-path="url(#clipPath3)">
    <text dominant-baseline="hanging" text-anchor="middle" transform="translate(416.2795,8)" font-family="Segoe UI" font-size="18" font-weight="700" fill="black">Logarithmic axis</text>
    <rect x="48.065" y="34.106" width="736.429" height="422.788" style="fill:none;stroke:black;stroke-width:1" shape-rendering="crispEdges" />
  </g>
</svg>