<?xml version="1.0" encoding="utf-8"?>
<svg width="800" height="500" version="1.1" xmlns:xlink="http://www.w3.org/1999/xlink" xmlns="http://www.w3.org/2000/svg">
  <defs>
    <clipPath id="clipPath1">
      <rect x="0" y="0" width="800" height="500" />
    </clipPath>
  </defs>
  <g clip-path="url(#clipPath1)">
    <polyline points="121.7429,392 121.7429,396" style="fill:none;stroke:black;stroke-width:1" shape-rendering="crispEdges" />
    <polyline points="128.976,392 128.976,396" style="fill:none;stroke:black;stroke-width:1" shape-rendering="crispEdges" />
    <polyline points="136.2092,392 136.2092,396" style="fill:none;stroke:black;stroke-width:1" shape-rendering="crispEdges" />
    <polyline points="143.4423,392 143.4423,396" style="fill:none;stroke:black;stroke-width:1" shape-rendering="crispEdges" />
    <polyline points="157.9085,392 157.9085,396" style="fill:none;stroke:black;stroke-width:1" shape-rendering="crispEdges" />
    <polyline points="165.1416,392 165.1416,396" style="fill:none;stroke:black;stroke-width:1" shape-rendering="crispEdges" />
    <polyline points="172.3747,392 172.3747,396" style="fill:none;stroke:black;stroke-width:1" shape-rendering="crispEdges" />
    <polyline points="179.6078,392 179.6078,396" style="fill:none;stroke:black;stroke-width:1" shape-rendering="crispEdges" />
    <polyline points="194.0741,392 194.0741,396" style="fill:none;stroke:black;stroke-width:1" shape-rendering="crispEdges" />
    <polyline points="201.3072,392 201.3072,396" style="fill:none;stroke:black;stroke-width:1" shape-rendering="crispEdges" />
    <polyline points="208.5403,392 208.5403,396" style="fill:none;stroke:black;stroke-width:1" shape-rendering="crispEdges" />
    <polyline points="215.7734,392 215.7734,396" style="fill:none;stroke:black;stroke-width:1" shape-rendering="crispEdges" />
    <polyline points="230.2397,392 230.2397,396" style="fill:none;stroke:black;stroke-width:1" shape-rendering="crispEdges" />
    <polyline points="237.4728,392 237.4728,396" style="fill:none;stroke:black;stroke-width:1" shape-rendering="crispEdges" />
    <polyline points="244.7059,392 244.7059,396" style="fill:none;stroke:black;stroke-width:1" shape-rendering="crispEdges" />
    <polyline points="251.939,392 251.939,396" style="fill:none;stroke:black;stroke-width:1" shape-rendering="crispEdges" />
    <polyline points="266.4052,392 266.4052,396" style="fill:none;stroke:black;stroke-width:1" shape-rendering="crispEdges" />
    <polyline points="273.6383,392 273.6383,396" style="fill:none;stroke:black;stroke-width:1" shape-rendering="crispEdges" />
    <polyline points="280.8715,392 280.8715,396" style="fill:none;stroke:black;stroke-width:1" shape-rendering="crispEdges" />
    <polyline points="288.1046,392 288.1046,396" style="fill:none;stroke:black;stroke-width:1" shape-rendering="crispEdges" />
    <polyline points="302.5708,392 302.5708,396" style="fill:none;stroke:black;stroke-width:1" shape-rendering="crispEdges" />
    <polyline points="309.8039,392 309.8039,396" style="fill:none;stroke:black;stroke-width:1" shape-rendering="crispEdges" />
    <polyline points="317.037,392 317.037,396" style="fill:none;stroke:black;stroke-width:1" shape-rendering="crispEdges" />
    <polyline points="324.2702,392 324.2702,396" style="fill:none;stroke:black;stroke-width:1" shape-rendering="crispEdges" />
    <polyline points="338.7364,392 338.7364,396" style="fill:none;stroke:black;stroke-width:1" shape-rendering="crispEdges" />
    <polyline points="345.9695,392 345.9695,396" style="fill:none;stroke:black;stroke-width:1" shape-rendering="crispEdges" />
    <polyline points="353.2026,392 353.2026,396" style="fill:none;stroke:black;stroke-width:1" shape-rendering="crispEdges" />
    <polyline points="360.4357,392 360.4357,396" style="fill:none;stroke:black;stroke-width:1" shape-rendering="crispEdges" />
    <polyline points="374.902,392 374.902,396" style="fill:none;stroke:black;stroke-width:1" shape-rendering="crispEdges" />
    <polyline points="382.1351,392 382.1351,396" style="fill:none;stroke:black;stroke-width:1" shape-rendering="crispEdges" />
    <polyline points="389.3682,392 389.3682,396" style="fill:none;stroke:black;stroke-width:1" shape-rendering="crispEdges" />
    <polyline points="396.6013,392 396.6013,396" style="fill:none;stroke:black;stroke-width:1" shape-rendering="crispEdges" />
    <polyline points="411.0675,392 411.0675,396" style="fill:none;stroke:black;stroke-width:1" shape-rendering="crispEdges" />
    <polyline points="418.3007,392 418.3007,396" style="fill:none;stroke:black;stroke-width:1" shape-rendering="crispEdges" />
    <polyline points="425.5338,392 425.5338,396" style="fill:none;stroke:black;stroke-width:1" shape-rendering="crispEdges" />
    <polyline points="432.7669,392 432.7669,396" style="fill:none;stroke:black;stroke-width:1" shape-rendering="crispEdges" />
    <polyline points="447.2331,392 447.2331,396" style="fill:none;stroke:black;stroke-width:1" shape-rendering="crispEdges" />
    <polyline points="454.4662,392 454.4662,396" style="fill:none;stroke:black;stroke-width:1" shape-rendering="crispEdges" />
    <polyline points="461.6993,392 461.6993,396" style="fill:none;stroke:black;stroke-width:1" shape-rendering="crispEdges" />
    <polyline points="468.9325,392 468.9325,396" style="fill:none;stroke:black;stroke-width:1" shape-rendering="crispEdges" />
    <polyline points="483.3987,392 483.3987,396" style="fill:none;stroke:black;stroke-width:1" shape-rendering="crispEdges" />
    <polyline points="490.6318,392 490.6318,396" style="fill:none;stroke:black;stroke-width:1" shape-rendering="crispEdges" />
    <polyline points="497.8649,392 497.8649,396" style="fill:none;stroke:black;stroke-width:1" shape-rendering="crispEdges" />
    <polyline points="505.098,392 505.098,396" style="fill:none;stroke:black;stroke-width:1" shape-rendering="crispEdges" />
    <polyline points="519.5643,392 519.5643,396" style="fill:none;stroke:black;stroke-width:1" shape-rendering="crispEdges" />
    <polyline points="526.7974,392 526.7974,396" style="fill:none;stroke:black;stroke-width:1" shape-rendering="crispEdges" />
    <polyline points="534.0305,392 534.0305,396" style="fill:none;stroke:black;stroke-width:1" shape-rendering="crispEdges" />
    <polyline points="541.2636,392 541.2636,396" style="fill:none;stroke:black;stroke-width:1" shape-rendering="crispEdges" />
    <polyline points="555.7298,392 555.7298,396" style="fill:none;stroke:black;stroke-width:1" shape-rendering="crispEdges" />
    <polyline points="562.963,392 562.963,396" style="fill:none;stroke:black;stroke-width:1" shape-rendering="crispEdges" />
    <polyline points="570.1961,392 570.1961,396" style="fill:none;stroke:black;stroke-width:1" shape-rendering="crispEdges" />
    <polyline points="577.4292,392 577.4292,396" style="fill:none;stroke:black;stroke-width:1" shape-rendering="crispEdges" />
    <polyline points="591.8954,392 591.8954,396" style="fill:none;stroke:black;stroke-width:1" shape-rendering="crispEdges" />
    <polyline points="599.1285,392 599.1285,396" style="fill:none;stroke:black;stroke-width:1" shape-rendering="crispEdges" />
    <polyline points="606.3617,392 606.3617,396" style="fill:none;stroke:black;stroke-width:1" shape-rendering="crispEdges" />
    <polyline points="613.5948,392 613.5948,396" style="fill:none;stroke:black;stroke-width:1" shape-rendering="crispEdges" />
    <polyline points="628.061,392 628.061,396" style="fill:none;stroke:black;stroke-width:1" shape-rendering="crispEdges" />
    <polyline points="635.2941,392 635.2941,396" style="fill:none;stroke:black;stroke-width:1" shape-rendering="crispEdges" />
    <polyline points="642.5272,392 642.5272,396" style="fill:none;stroke:black;stroke-width:1" shape-rendering="crispEdges" />
    <polyline points="649.7603,392 649.7603,396" style="fill:none;stroke:black;stroke-width:1" shape-rendering="crispEdges" />
    <polyline points="664.2266,392 664.2266,396" style="fill:none;stroke:black;stroke-width:1" shape-rendering="crispEdges" />
    <polyline points="671.4597,392 671.4597,396" style="fill:none;stroke:black;stroke-width:1" shape-rendering="crispEdges" />
    <polyline points="678.6928,392 678.6928,396" style="fill:none;stroke:black;stroke-width:1" shape-rendering="crispEdges" />
    <polyline points="685.9259,392 685.9259,396" style="fill:none;stroke:black;stroke-width:1" shape-rendering="crispEdges" />
    <polyline points="700.3922,392 700.3922,396" style="fill:none;stroke:black;stroke-width:1" shape-rendering="crispEdges" />
    <polyline points="707.6253,392 707.6253,396" style="fill:none;stroke:black;stroke-width:1" shape-rendering="crispEdges" />
    <polyline points="714.8584,392 714.8584,396" style="fill:none;stroke:black;stroke-width:1" shape-rendering="crispEdges" />
    <polyline points="722.0915,392 722.0915,396" style="fill:none;stroke:black;stroke-width:1" shape-rendering="crispEdges" />
    <polyline points="736.5577,392 736.5577,396" style="fill:none;stroke:black;stroke-width:1" shape-rendering="crispEdges" />
    <polyline points="743.7908,392 743.7908,396" style="fill:none;stroke:black;stroke-width:1" shape-rendering="crispEdges" />
    <polyline points="751.024,392 751.024,396" style="fill:none;stroke:black;stroke-width:1" shape-rendering="crispEdges" />
    <polyline points="758.2571,392 758.2571,396" style="fill:none;stroke:black;stroke-width:1" shape-rendering="crispEdges" />
    <polyline points="108,383.9635 104,383.9635" style="fill:none;stroke:black;stroke-width:1" shape-rendering="crispEdges" />
    <polyline points="108,379.0929 104,379.0929" style="fill:none;stroke:black;stroke-width:1" shape-rendering="crispEdges" />
    <polyline points="108,374.2223 104,374.2223" style="fill:none;stroke:black;stroke-width:1" shape-rendering="crispEdges" />
    <polyline points="108,369.3517 104,369.3517" style="fill:none;stroke:black;stroke-width:1" shape-rendering="crispEdges" />
    <polyline points="108,359.6105 104,359.6105" style="fill:none;stroke:black;stroke-width:1" shape-rendering="crispEdges" />
    <polyline points="108,354.7399 104,354.7399" style="fill:none;stroke:black;stroke-width:1" shape-rendering="crispEdges" />
    <polyline points="108,349.8693 104,349.8693" style="fill:none;stroke:black;stroke-width:1" shape-rendering="crispEdges" />
    <polyline points="108,344.9988 104,344.9988" style="fill:none;stroke:black;stroke-width:1" shape-rendering="crispEdges" />
    <polyline points="108,335.2576 104,335.2576" style="fill:none;stroke:black;stroke-width:1" shape-rendering="crispEdges" />
    <polyline points="108,330.387 104,330.387" style="fill:none;stroke:black;stroke-width:1" shape-rendering="crispEdges" />
    <polyline points="108,325.5164 104,325.5164" style="fill:none;stroke:black;stroke-width:1" shape-rendering="crispEdges" />
    <polyline points="108,320.6458 104,320.6458" style="fill:none;stroke:black;stroke-width:1" shape-rendering="crispEdges" />
    <polyline points="108,310.9046 104,310.9046" style="fill:none;stroke:black;stroke-width:1" shape-rendering="crispEdges" />
    <polyline points="108,306.034 104,306.034" style="fill:none;stroke:black;stroke-width:1" shape-rendering="crispEdges" />
    <polyline points="108,301.1634 104,301.1634" style="fill:none;stroke:black;stroke-width:1" shape-rendering="crispEdges" />
    <polyline points="108,296.2928 104,296.2928" style="fill:none;stroke:black;stroke-width:1" shape-rendering="crispEdges" />
    <polyline points="108,286.5516 104,286.5516" style="fill:none;stroke:black;stroke-width:1" shape-rendering="crispEdges" />
    <polyline points="108,281.681 104,281.681" style="fill:none;stroke:black;stroke-width:1" shape-rendering="crispEdges" />
    <polyline points="108,276.8104 104,276.8104" style="fill:none;stroke:black;stroke-width:1" shape-rendering="crispEdges" />
    <polyline points="108,271.9398 104,271.9398" style="fill:none;stroke:black;stroke-width:1" shape-rendering="crispEdges" />
    <polyline points="108,262.1986 104,262.1986" style="fill:none;stroke:black;stroke-width:1" shape-rendering="crispEdges" />
    <polyline points="108,257.328 104,257.328" style="fill:none;stroke:black;stroke-width:1" shape-rendering="crispEdges" />
    <polyline points="108,252.4574 104,252.4574" style="fill:none;stroke:black;stroke-width:1" shape-rendering="crispEdges" />
    <polyline points="108,247.5868 104,247.5868" style="fill:none;stroke:black;stroke-width:1" shape-rendering="crispEdges" />
    <polyline points="108,237.8456 104,237.8456" style="fill:none;stroke:black;stroke-width:1" shape-rendering="crispEdges" />
    <polyline points="108,232.975 104,232.975" style="fill:none;stroke:black;stroke-width:1" shape-rendering="crispEdges" />
    <polyline points="108,228.1045 104,228.1045" style="fill:none;stroke:black;stroke-width:1" shape-rendering="crispEdges" />
    <polyline points="108,223.2339 104,223.2339" style="fill:none;stroke:black;stroke-width:1" shape-rendering="crispEdges" />
    <polyline points="108,213.4927 104,213.4927" style="fill:none;stroke:black;stroke-width:1" shape-rendering="crispEdges" />
    <polyline points="108,208.6221 104,208.6221" style="fill:none;stroke:black;stroke-width:1" shape-rendering="crispEdges" />
    <polyline points="108,203.7515 104,203.7515" style="fill:none;stroke:black;stroke-width:1" shape-rendering="crispEdges" />
    <polyline points="108,198.8809 104,198.8809" style="fill:none;stroke:black;stroke-width:1" shape-rendering="crispEdges" />
    <polyline points="108,189.1397 104,189.1397" style="fill:none;stroke:black;stroke-width:1" shape-rendering="crispEdges" />
    <polyline points="108,184.2691 104,184.2691" style="fill:none;stroke:black;stroke-width:1" shape-rendering="crispEdges" />
    <polyline points="108,179.3985 104,179.3985" style="fill:none;stroke:black;stroke-width:1" shape-rendering="crispEdges" />
    <polyline points="108,174.5279 104,174.5279" style="fill:none;stroke:black;stroke-width:1" shape-rendering="crispEdges" />
    <polyline points="108,164.7867 104,164.7867" style="fill:none;stroke:black;stroke-width:1" shape-rendering="crispEdges" />
    <polyline points="108,159.9161 104,159.9161" style="fill:none;stroke:black;stroke-width:1" shape-rendering="crispEdges" />
    <polyline points="108,155.0455 104,155.0455" style="fill:none;stroke:black;stroke-width:1" shape-rendering="crispEdges" />
    <polyline points="108,150.1749 104,150.1749" style="fill:none;stroke:black;stroke-width:1" shape-rendering="crispEdges" />
    <polyline points="108,140.4337 104,140.4337" style="fill:none;stroke:black;stroke-width:1" shape-rendering="crispEdges" />
    <polyline points="108,135.5631 104,135.5631" style="fill:none;stroke:black;stroke-width:1" shape-rendering="crispEdges" />
    <polyline points="108,130.6925 104,130.6925" style="fill:none;stroke:black;stroke-width:1" shape-rendering="crispEdges" />
    <polyline points="108,125.8219 104,125.8219" style="fill:none;stroke:black;stroke-width:1" shape-rendering="crispEdges" />
    <polyline points="108,116.0807 104,116.0807" style="fill:none;stroke:black;stroke-width:1" shape-rendering="crispEdges" />
    <polyline points="108,111.2102 104,111.2102" style="fill:none;stroke:black;stroke-width:1" shape-rendering="crispEdges" />
    <polyline points="108,106.3396 104,106.3396" style="fill:none;stroke:black;stroke-width:1" shape-rendering="crispEdges" />
    <polyline points="108,101.469 104,101.469" style="fill:none;stroke:black;stroke-width:1" shape-rendering="crispEdges" />
    <polyline points="108,91.7278 104,91.7278" style="fill:none;stroke:black;stroke-width:1" shape-rendering="crispEdges" />
    <polyline points="108,86.8572 104,86.8572" style="fill:none;stroke:black;stroke-width:1" shape-rendering="crispEdges" />
    <polyline points="108,81.9866 104,81.9866" style="fill:none;stroke:black;stroke-width:1" shape-rendering="crispEdges" />
    <polyline points="108,77.116 104,77.116" style="fill:none;stroke:black;stroke-width:1" shape-rendering="crispEdges" />
    <text dominant-baseline="middle" text-anchor="end" transform="translate(114.5098,403) rotate(-46)" font-family="Segoe UI" font-size="12" font-weight="400" fill="black">1/1/2011</text>
    <text dominant-baseline="middle" text-anchor="end" transform="translate(150.6754,403) rotate(-46)" font-family="Segoe UI" font-size="12" font-weight="400" fill="black">1/2/2011</text>
    <text dominant-baseline="middle" text-anchor="end" transform="translate(186.841,403) rotate(-46)" font-family="Segoe UI" font-size="12" font-weight="400" fill="black">1/3/2011</text>
    <text dominant-baseline="middle" text-anchor="end" transform="translate(223.0065,403) rotate(-46)" font-family="Segoe UI" font-size="12" font-weight="400" fill="black">1/4/2011</text>
    <text dominant-baseline="middle" text-anchor="end" transform="translate(259.1721,403) rotate(-46)" font-family="Segoe UI" font-size="12" font-weight="400" fill="black">1/5/2011</text>
    <text dominant-baseline="middle" text-anchor="end" transform="translate(295.3377,403) rotate(-46)" font-family="Segoe UI" font-size="12" font-weight="400" fill="black">1/6/2011</text>
    <text dominant-baseline="middle" text-anchor="end" transform="translate(331.5033,403) rotate(-46)" font-family="Segoe UI" font-size="12" font-weight="400" fill="black">1/7/2011</text>
    <text dominant-baseline="middle" text-anchor="end" transform="translate(367.6688,403) rotate(-46)" font-family="Segoe UI" font-size="12" font-weight="400" fill="black">1/8/2011</text>
    <text dominant-baseline="middle" text-anchor="end" transform="translate(403.8344,403) rotate(-46)" font-family="Segoe UI" font-size="12" font-weight="400" fill="black">1/9/2011</text>
    <text dominant-baseline="middle" text-anchor="end" transform="translate(440,403) rotate(-46)" font-family="Segoe UI" font-size="12" font-weight="400" fill="black">1/10/2011</text>
    <text dominant-baseline="middle" text-anchor="end" transform="translate(476.1656,403) rotate(-46)" font-family="Segoe UI" font-size="12" font-weight="400" fill="black">1/11/2011</text>
    <text dominant-baseline="middle" text-anchor="end" transform="translate(512.3312,403) rotate(-46)" font-family="Segoe UI" font-size="12" font-weight="400" fill="black">1/12/2011</text>
    <text dominant-baseline="middle" text-anchor="end" transform="translate(548.4967,403) rotate(-46)" font-family="Segoe UI" font-size="12" font-weight="400" fill="black">1/13/2011</text>
    <text dominant-baseline="middle" text-anchor="end" transform="translate(584.6623,403) rotate(-46)" font-family="Segoe UI" font-size="12" font-weight="400" fill="black">1/14/2011</text>
    <text dominant-baseline="middle" text-anchor="end" transform="translate(620.8279,403) rotate(-46)" font-family="Segoe UI" font-size="12" font-weight="400" fill="black">1/15/2011</text>
    <text dominant-baseline="middle" text-anchor="end" transform="translate(656.9935,403) rotate(-46)" font-family="Segoe UI" font-size="12" font-weight="400" fill="black">1/16/2011</text>
    <text dominant-baseline="middle" text-anchor="end" transform="translate(693.159,403) rotate(-46)" font-family="Segoe UI" font-size="12" font-weight="400" fill="black">1/17/2011</text>
    <text dominant-baseline="middle" text-anchor="end" transform="translate(729.3246,403) rotate(-46)" font-family="Segoe UI" font-size="12" font-weight="400" fill="black">1/18/2011</text>
    <text dominant-baseline="middle" text-anchor="end" transform="translate(765.4902,403) rotate(-46)" font-family="Segoe UI" font-size="12" font-weight="400" fill="black">1/19/2011</text>
    <polyline points="114.5098,392 114.5098,399" style="fill:none;stroke:black;stroke-width:1" shape-rendering="crispEdges" />
    <polyline points="150.6754,392 150.6754,399" style="fill:none;stroke:black;stroke-width:1" shape-rendering="crispEdges" />
    <polyline points="186.841,392 186.841,399" style="fill:none;stroke:black;stroke-width:1" shape-rendering="crispEdges" />
    <polyline points="223.0065,392 223.0065,399" style="fill:none;stroke:black;stroke-width:1" shape-rendering="crispEdges" />
    <polyline points="259.1721,392 259.1721,399" style="fill:none;stroke:black;stroke-width:1" shape-rendering="crispEdges" />
    <polyline points="295.3377,392 295.3377,399" style="fill:none;stroke:black;stroke-width:1" shape-rendering="crispEdges" />
    <polyline points="331.5033,392 331.5033,399" style="fill:none;stroke:black;stroke-width:1" shape-rendering="crispEdges" />
    <polyline points="367.6688,392 367.6688,399" style="fill:none;stroke:black;stroke-width:1" shape-rendering="crispEdges" />
    <polyline points="403.8344,392 403.8344,399" style="fill:none;stroke:black;stroke-width:1" shape-rendering="crispEdges" />
    <polyline points="440,392 440,399" style="fill:none;stroke:black;stroke-width:1" shape-rendering="crispEdges" />
    <polyline points="476.1656,392 476.1656,399" style="fill:none;stroke:black;stroke-width:1" shape-rendering="crispEdges" />
    <polyline points="512.3312,392 512.3312,399" style="fill:none;stroke:black;stroke-width:1" shape-rendering="crispEdges" />
    <polyline points="548.4967,392 548.4967,399" style="fill:none;stroke:black;stroke-width:1" shape-rendering="crispEdges" />
    <polyline points="584.6623,392 584.6623,399" style="fill:none;stroke:black;stroke-width:1" shape-rendering="crispEdges" />
    <polyline points="620.8279,392 620.8279,399" style="fill:none;stroke:black;stroke-width:1" shape-rendering="crispEdges" />
    <polyline points="656.9935,392 656.9935,399" style="fill:none;stroke:black;stroke-width:1" shape-rendering="crispEdges" />
    <polyline points="693.159,392 693.159,399" style="fill:none;stroke:black;stroke-width:1" shape-rendering="crispEdges" />
    <polyline points="729.3246,392 729.3246,399" style="fill:none;stroke:black;stroke-width:1" shape-rendering="crispEdges" />
    <polyline points="765.4902,392 765.4902,399" style="fill:none;stroke:black;stroke-width:1" shape-rendering="crispEdges" />
    <text dominant-baseline="baseline" text-anchor="middle" transform="translate(440,448.8201)" font-family="Segoe UI" font-size="12" font-weight="400" fill="black">DateTime X</text>
    <text dominant-baseline="middle" text-anchor="end" transform="translate(97,388.8341) rotate(-45)" font-family="Segoe UI" font-size="12" font-weight="400" fill="black">3/1/2011</text>
    <text dominant-baseline="middle" text-anchor="end" transform="translate(97,364.4811) rotate(-45)" font-family="Segoe UI" font-size="12" font-weight="400" fill="black">3/2/2011</text>
    <text dominant-baseline="middle" text-anchor="end" transform="translate(97,340.1282) rotate(-45)" font-family="Segoe UI" font-size="12" font-weight="400" fill="black">3/3/2011</text>
    <text dominant-baseline="middle" text-anchor="end" transform="translate(97,315.7752) rotate(-45)" font-family="Segoe UI" font-size="12" font-weight="400" fill="black">3/4/2011</text>
    <text dominant-baseline="middle" text-anchor="end" transform="translate(97,291.4222) rotate(-45)" font-family="Segoe UI" font-size="12" font-weight="400" fill="black">3/5/2011</text>
    <text dominant-baseline="middle" text-anchor="end" transform="translate(97,267.0692) rotate(-45)" font-family="Segoe UI" font-size="12" font-weight="400" fill="black">3/6/2011</text>
    <text dominant-baseline="middle" text-anchor="end" transform="translate(97,242.7162) rotate(-45)" font-family="Segoe UI" font-size="12" font-weight="400" fill="black">3/7/2011</text>
    <text dominant-baseline="middle" text-anchor="end" transform="translate(97,218.3633) rotate(-45)" font-family="Segoe UI" font-size="12" font-weight="400" fill="black">3/8/2011</text>
    <text dominant-baseline="middle" text-anchor="end" transform="translate(97,194.0103) rotate(-45)" font-family="Segoe UI" font-size="12" font-weight="400" fill="black">3/9/2011</text>
    <text dominant-baseline="middle" text-anchor="end" transform="translate(97,169.6573) rotate(-45)" font-family="Segoe UI" font-size="12" font-weight="400" fill="black">3/10/2011</text>
    <text dominant-baseline="middle" text-anchor="end" transform="translate(97,145.3043) rotate(-45)" font-family="Segoe UI" font-size="12" font-weight="400" fill="black">3/11/2011</text>
    <text dominant-baseline="middle" text-anchor="end" transform="translate(97,120.9513) rotate(-45)" font-family="Segoe UI" font-size="12" font-weight="400" fill="black">3/12/2011</text>
    <text dominant-baseline="middle" text-anchor="end" transform="translate(97,96.5984) rotate(-45)" font-family="Segoe UI" font-size="12" font-weight="400" fill="black">3/13/2011</text>
    <text dominant-baseline="middle" text-anchor="end" transform="translate(97,72.2454) rotate(-45)" font-family="Segoe UI" font-size="12" font-weight="400" fill="black">3/14/2011</text>
    <polyline points="108,388.8341 101,388.8341" style="fill:none;stroke:black;stroke-width:1" shape-rendering="crispEdges" />
    <polyline points="108,364.4811 101,364.4811" style="fill:none;stroke:black;stroke-width:1" shape-rendering="crispEdges" />
    <polyline points="108,340.1282 101,340.1282" style="fill:none;stroke:black;stroke-width:1" shape-rendering="crispEdges" />
    <polyline points="108,315.7752 101,315.7752" style="fill:none;stroke:black;stroke-width:1" shape-rendering="crispEdges" />
    <polyline points="108,291.4222 101,291.4222" style="fill:none;stroke:black;stroke-width:1" shape-rendering="crispEdges" />
    <polyline points="108,267.0692 101,267.0692" style="fill:none;stroke:black;stroke-width:1" shape-rendering="crispEdges" />
    <polyline points="108,242.7162 101,242.7162" style="fill:none;stroke:black;stroke-width:1" shape-rendering="crispEdges" />
    <polyline points="108,218.3633 101,218.3633" style="fill:none;stroke:black;stroke-width:1" shape-rendering="crispEdges" />
    <polyline points="108,194.0103 101,194.0103" style="fill:none;stroke:black;stroke-width:1" shape-rendering="crispEdges" />
    <polyline points="108,169.6573 101,169.6573" style="fill:none;stroke:black;stroke-width:1" shape-rendering="crispEdges" />
    <polyline points="108,145.3043 101,145.3043" style="fill:none;stroke:black;stroke-width:1" shape-rendering="crispEdges" />
    <polyline points="108,120.9513 101,120.9513" style="fill:none;stroke:black;stroke-width:1" shape-rendering="crispEdges" />
    <polyline points="108,96.5984 101,96.5984" style="fill:none;stroke:black;stroke-width:1" shape-rendering="crispEdges" />
    <polyline points="108,72.2454 101,72.2454" style="fill:none;stroke:black;stroke-width:1" shape-rendering="crispEdges" />
    <text dominant-baseline="hanging" text-anchor="middle" transform="translate(51.5443,230.5398) rotate(-90)" font-family="Segoe UI" font-size="12" font-weight="400" fill="black">DateTime Y</text>
  </g>
  <defs>
    <clipPath id="clipPath2">
      <rect x="108" y="69.0795" width="664" height="322.9205" />
    </clipPath>
  </defs>
  <g clip-path="url(#clipPath2)">
    <polyline points="114.5098,388.8341" style="fill:none;stroke:rgb(78,154,6);stroke-width:2;stroke-linejoin:bevel" />
    <polyline points="295.3377,120.9513" style="fill:none;stroke:rgb(78,154,6);stroke-width:2;stroke-linejoin:bevel" />
    <polyline points="765.4902,72.2454" style="fill:none;stroke:rgb(78,154,6);stroke-width:2;stroke-linejoin:bevel" />
  </g>
  <defs>
    <clipPath id="clipPath3">
      <rect x="0" y="0" width="800" height="500" />
    </clipPath>
  </defs>
  <g clip-path="url(#clipPath3)">
    <text dominant-baseline="hanging" text-anchor="middle" transform="translate(440,8)" font-family="Segoe UI" font-size="18" font-weight="700" fill="black">DateTime axis</text>
    <rect x="108" y="69.0795" width="664" height="322.9205" style="fill:none;stroke:black;stroke-width:1" shape-rendering="crispEdges" />
  </g>
</svg>